<svg width="67" height="50" viewBox="0 0 67 50" fill="none" xmlns="http://www.w3.org/2000/svg">
<g clip-path="url(#clip0_1_488)">
<path d="M64.4207 39.3101L49.6163 24.4837C52.3941 18.1696 51.2055 10.5136 46.0485 5.34891C39.3294 -1.38001 28.4536 -1.38092 21.7338 5.34891C15.0305 12.062 15.0305 22.9851 21.7338 29.6982C27.0605 35.0328 34.867 36.0485 41.099 33.1639L55.8277 47.9144C58.2024 50.2925 62.0465 50.2928 64.4212 47.9139C66.7894 45.5417 66.7892 41.6821 64.4207 39.3101ZM24.4768 26.9523C19.2854 21.7533 19.2854 13.294 24.4768 8.09483C29.6797 2.88418 38.1015 2.88327 43.3053 8.09483C48.4967 13.294 48.4967 21.7533 43.3053 26.9523C38.1023 32.1631 29.6805 32.1639 24.4768 26.9523ZM61.6778 45.1684C60.8193 46.0284 59.4296 46.0287 58.5708 45.1685L44.4989 31.0758C45.6555 30.1642 46.6864 29.1174 47.5816 27.9391L61.6775 42.0558C62.5344 42.914 62.5345 44.3102 61.6778 45.1684Z" fill="#01E45C"/>
<path d="M1.93946 23.5707H10.2096C11.2807 23.5707 12.149 22.7012 12.149 21.6288C12.149 20.5564 11.2807 19.687 10.2096 19.687H1.93946C0.86836 19.687 0 20.5564 0 21.6288C0 22.7012 0.86836 23.5707 1.93946 23.5707Z" fill="#2B2B2B"/>
<path d="M1.93946 31.8559H13.3109C14.382 31.8559 15.2503 30.9865 15.2503 29.9141C15.2503 28.8417 14.382 27.9722 13.3109 27.9722H1.93946C0.86836 27.9722 0 28.8417 0 29.9141C0 30.9865 0.86836 31.8559 1.93946 31.8559Z" fill="#2B2B2B"/>
<path d="M1.93946 40.1412H21.5811C22.6522 40.1412 23.5206 39.2717 23.5206 38.1993C23.5206 37.1269 22.6522 36.2574 21.5811 36.2574H1.93946C0.86836 36.2574 0 37.1269 0 38.1993C0 39.2717 0.86836 40.1412 1.93946 40.1412Z" fill="#2B2B2B"/>
<path d="M44.3242 44.5427H1.93946C0.86836 44.5427 0 45.4122 0 46.4846C0 47.557 0.86836 48.4264 1.93946 48.4264H44.3242C45.3953 48.4264 46.2637 47.557 46.2637 46.4846C46.2637 45.4122 45.3953 44.5427 44.3242 44.5427Z" fill="#2B2B2B"/>
</g>
<defs>
<clipPath id="clip0_1_488">
<rect width="66.1972" height="50" fill="white"/>
</clipPath>
</defs>
</svg>
