<svg width="54" height="50" viewBox="0 0 54 50" fill="none" xmlns="http://www.w3.org/2000/svg">
<g clip-path="url(#clip0_1_478)">
<path d="M4.40983 1.9029L4.40983 4.25996C2.19511 5.04547 0.604029 7.16061 0.604029 9.64135C0.604029 12.1221 2.19511 14.2372 4.40983 15.0228L4.40983 47.8262C4.40983 48.8771 5.26182 49.7291 6.31272 49.7291C7.36363 49.7291 8.21562 48.8771 8.21562 47.8262L8.21562 15.0228C10.4303 14.2372 12.0214 12.1221 12.0214 9.64135C12.0214 7.16061 10.4303 5.04547 8.21563 4.25996L8.21563 1.9029C8.21563 0.851991 7.36363 -2.03598e-07 6.31273 -2.49535e-07C5.26182 -2.95472e-07 4.40983 0.851991 4.40983 1.9029ZM8.21562 9.64135C8.21562 10.6906 7.36198 11.5443 6.31273 11.5443C5.26347 11.5443 4.40983 10.6906 4.40983 9.64135C4.40983 8.5921 5.26347 7.73846 6.31273 7.73846C7.36198 7.73846 8.21562 8.5921 8.21562 9.64135Z" fill="#2B2B2B"/>
<path d="M24.7903 47.8262L24.7903 45.4691C22.5755 44.6836 20.9845 42.5685 20.9845 40.0877C20.9845 37.607 22.5755 35.4918 24.7903 34.7063L24.7903 1.90287C24.7903 0.851963 25.6423 -3.02221e-05 26.6932 -3.0268e-05C27.7441 -3.0314e-05 28.5961 0.851963 28.5961 1.90287L28.5961 34.7063C30.8108 35.4918 32.4019 37.607 32.4019 40.0877C32.4019 42.5685 30.8108 44.6836 28.5961 45.4691L28.5961 47.8262C28.5961 48.8771 27.7441 49.7291 26.6932 49.7291C25.6423 49.7291 24.7903 48.8771 24.7903 47.8262ZM28.5961 40.0877C28.5961 39.0385 27.7424 38.1848 26.6932 38.1848C25.6439 38.1848 24.7903 39.0385 24.7903 40.0877C24.7903 41.137 25.6439 41.9906 26.6932 41.9906C27.7424 41.9906 28.5961 41.137 28.5961 40.0877Z" fill="#01E45C"/>
<path d="M45.1706 1.9029L45.1706 4.25996C42.9559 5.04547 41.3648 7.16061 41.3648 9.64135C41.3648 12.1221 42.9559 14.2372 45.1706 15.0228L45.1706 47.8262C45.1706 48.8771 46.0226 49.7291 47.0735 49.7291C48.1244 49.7291 48.9764 48.8771 48.9764 47.8262L48.9764 15.0228C51.1911 14.2372 52.7822 12.1221 52.7822 9.64135C52.7822 7.16061 51.1911 5.04547 48.9764 4.25996L48.9764 1.9029C48.9764 0.851991 48.1244 -2.03598e-07 47.0735 -2.49535e-07C46.0226 -2.95472e-07 45.1706 0.851991 45.1706 1.9029ZM48.9764 9.64135C48.9764 10.6906 48.1228 11.5443 47.0735 11.5443C46.0243 11.5443 45.1706 10.6906 45.1706 9.64135C45.1706 8.5921 46.0243 7.73846 47.0735 7.73846C48.1228 7.73846 48.9764 8.5921 48.9764 9.64135Z" fill="#2B2B2B"/>
</g>
<defs>
<clipPath id="clip0_1_478">
<rect width="53.2609" height="50" fill="white"/>
</clipPath>
</defs>
</svg>
