<svg width="60" height="50" viewBox="0 0 60 50" fill="none" xmlns="http://www.w3.org/2000/svg">
<g clip-path="url(#clip0_1_473)">
<path d="M5.27344 49.5093H54.7266C57.6343 49.5093 60 47.1533 60 44.2573V5.74266C60 2.84671 57.6343 0.490662 54.7266 0.490662H5.27344C2.36566 0.490662 0 2.84671 0 5.74266V44.2573C0 47.1533 2.36566 49.5093 5.27344 49.5093ZM3.51562 5.74266C3.51562 4.77734 4.30418 3.992 5.27344 3.992H54.7266C55.6958 3.992 56.4844 4.77734 56.4844 5.74266V44.2573C56.4844 45.2227 55.6958 46.008 54.7266 46.008H5.27344C4.30418 46.008 3.51562 45.2227 3.51562 44.2573V5.74266Z" fill="#01E45C"/>
<path d="M8.78902 39.0053H10.9664C11.692 41.0428 13.6459 42.5066 15.9375 42.5066C18.2291 42.5066 20.1829 41.0428 20.9085 39.0053H51.2109C52.1817 39.0053 52.9687 38.2215 52.9687 37.2546C52.9687 36.2878 52.1817 35.504 51.2109 35.504H20.9085C20.1829 33.4664 18.2291 32.0026 15.9375 32.0026C13.6459 32.0026 11.692 33.4664 10.9664 35.504H8.78902C7.81824 35.504 7.0312 36.2878 7.0312 37.2546C7.0312 38.2215 7.81824 39.0053 8.78902 39.0053ZM15.9375 35.504C16.9067 35.504 17.6953 36.2893 17.6953 37.2546C17.6953 38.2199 16.9067 39.0053 15.9375 39.0053C14.9682 39.0053 14.1796 38.2199 14.1796 37.2546C14.1796 36.2893 14.9682 35.504 15.9375 35.504Z" fill="#2B2B2B"/>
<path d="M22.0445 28.2398C22.5637 28.5594 23.211 28.5873 23.7548 28.3165L37.8172 21.3138C38.4128 21.0172 38.789 20.4111 38.789 19.7479C38.789 19.0848 38.4128 18.4787 37.8172 18.182L23.7548 11.1794C23.2099 10.908 22.5627 10.9369 22.0445 11.256C21.5263 11.575 21.2108 12.1385 21.2108 12.7453V26.7506C21.2108 27.3574 21.5263 27.9209 22.0445 28.2398ZM24.7265 15.578L33.1006 19.7479L24.7265 23.9179V15.578Z" fill="#2B2B2B"/>
</g>
<defs>
<clipPath id="clip0_1_473">
<rect width="60" height="50" fill="white"/>
</clipPath>
</defs>
</svg>
